<svg width="654" height="141" viewBox="0 0 654 141" fill="none" xmlns="http://www.w3.org/2000/svg">
<path d="M609.644 140.4C583.724 140.4 565.964 121.84 565.964 95.9199C565.964 67.9199 584.364 50.6399 608.044 50.6399C632.044 50.6399 648.044 67.4399 648.524 94.9599V99.4399H584.844C586.124 114.32 595.404 124.4 609.804 124.4C619.564 124.4 626.924 119.6 629.804 111.12H648.204C643.884 129.36 629.644 140.4 609.644 140.4ZM585.644 86.1599H629.004C626.604 73.9999 619.084 66.6399 608.044 66.6399C596.844 66.6399 588.524 73.9999 585.644 86.1599Z" fill="white"/>
<path d="M527.183 138H507.503L472.143 53.2H492.623L517.423 115.76L542.063 53.2H562.543L527.183 138Z" fill="white"/>
<path d="M460.418 138H441.538V53.2H460.418V138Z" fill="white"/>
<path fill-rule="evenodd" clip-rule="evenodd" d="M451.176 11H450.844H451.137C450.669 22.2156 441.833 31.1588 431 31.1635C441.833 31.1682 450.669 40.1114 451.137 51H450.844H451.176C451.644 40.1114 460.48 31.1682 471 31.1635C460.48 31.1588 451.644 22.2156 451.176 11Z" fill="#F28705"/>
<path d="M426.115 138H415.235C396.835 138 386.915 128.88 386.915 112.08V69.2H372.035V53.2H386.915V24.24H405.795V53.2H427.715V69.2H405.795V110.8C405.795 118 409.475 122 416.515 122H426.115V138Z" fill="white"/>
<path d="M313.6 139.76C294.08 139.76 281.28 130.32 281.44 114.48C281.6 94.6399 301.28 90.4799 317.76 88.5599C330.56 87.1199 340 86.6399 340.16 79.9199C340 71.5999 333.6 66.1599 322.72 66.1599C311.52 66.1599 303.52 72.2399 302.4 81.0399H283.36C285.12 63.1199 301.12 50.6399 323.04 50.6399C345.92 50.6399 358.56 63.1199 358.56 81.1999V119.6C358.56 122 359.84 123.28 362.72 123.28H367.36V138H358.4C349.76 138 344.48 134.48 343.04 128.08C342.72 127.28 342.4 126.16 342.24 125.2C337.28 134.32 328 139.76 313.6 139.76ZM317.44 124.88C330.4 124.88 340.16 117.52 340.16 106.16V94.3199C336.96 99.2799 328.8 100.4 319.84 101.52C309.28 102.8 300.48 104.24 300.48 113.2C300.48 120.56 306.4 124.88 317.44 124.88Z" fill="white"/>
<rect x="186" y="48" width="90" height="90" fill="#F28705"/>
<path d="M276 92.9174C276 92.9174 255.855 121.835 231 121.835C206.145 121.835 186 92.9174 186 92.9174C186 92.9174 206.145 64 231 64C255.855 64 276 92.9174 276 92.9174Z" fill="white"/>
<path d="M231 113.435C242.332 113.435 251.518 104.249 251.518 92.9173C251.518 81.5856 242.332 72.3994 231 72.3994C219.669 72.3994 210.482 81.5856 210.482 92.9173C210.482 104.249 219.669 113.435 231 113.435Z" fill="black"/>
<path d="M151.918 137H133.038V52.2H148.238L150.478 68.84C155.918 57.32 165.838 51.24 179.918 51.24H183.118V69.64H179.918C162.318 69.64 151.918 79.08 151.918 95.08V137Z" fill="white"/>
<path d="M62.8801 139.4C28.4801 139.4 6.56006 115.72 6.56006 80.6801C6.56006 46.7601 28.0001 22.6001 62.8801 22.6001C92.0001 22.6001 112 39.5601 116.8 68.2001H97.1201C93.6001 50.6001 80.6401 39.8801 62.8801 39.8801C40.3201 39.8801 26.2401 55.7201 26.2401 80.6801C26.2401 106.28 40.3201 121.96 62.8801 121.96C80.9601 121.96 93.6001 111.56 97.1201 93.8001H116.8C111.68 122.92 92.1601 139.4 62.8801 139.4Z" fill="white"/>
</svg>
