<svg width="120" height="120" viewBox="0 0 120 120" fill="none" xmlns="http://www.w3.org/2000/svg">
<path fill-rule="evenodd" clip-rule="evenodd" d="M120 0H0V120H5.913V63.3H15.633V120H44.569V77.07H52.264L52.993 83.064C55.666 78.852 60.931 75.774 67.33 75.774C73.486 75.774 78.184 78.852 80.452 83.793C82.882 79.257 88.39 75.774 95.194 75.774C104.185 75.774 109.936 82.173 109.936 91.407V120H120V0ZM100.297 120V91.893C100.297 87.114 97.381 84.036 92.764 84.036C86.203 84.036 82.072 88.329 81.991 93.999V120H100.297ZM72.433 120V91.893C72.433 87.114 69.517 84.036 64.9 84.036C58.339 84.036 54.208 88.329 54.127 93.999V120H72.433ZM31.8855 87.276L41.2005 59.169L33.5055 56.82L24.5955 85.008L31.8855 87.276Z" fill="black"/>
</svg>
